<svg fill="#228BE6" version="1.1" id="Capa_1" xmlns="http://www.w3.org/2000/svg" xmlns:xlink="http://www.w3.org/1999/xlink" 
	 width="800px" height="800px" viewBox="0 0 480.581 480.581"
	 xml:space="preserve">
<g>
	<path d="M419.724,229.743c13.347,0,26.185,6.844,35.21,18.755c3.612,4.787,10.291,6.82,15.912,4.924
		c5.816-1.957,9.724-7.383,9.724-13.51V115.414c0-7.861-6.401-14.254-14.257-14.254h-93.13c3.25-7.22,4.936-14.86,4.936-22.635
		c0-38.187-40.933-69.248-91.245-69.248c-50.318,0-91.259,31.061-91.259,69.248c0,7.775,1.682,15.416,4.938,22.635h-93.124
		c-7.858,0-14.248,6.398-14.248,14.254v85.064c-7.578-3.632-15.652-5.503-23.927-5.503C31.061,194.976,0,235.911,0,286.227
		c0,50.318,31.067,91.25,69.253,91.25c8.275,0,16.349-1.874,23.927-5.503v85.079c0,7.861,6.395,14.251,14.248,14.251h104.686
		c7.861,0,14.254-6.401,14.254-14.251c0-3.682-1.427-7.211-3.945-9.858c-3.88-5.226-5.843-10.616-5.843-16.019
		c0-23.141,33.766-42.688,73.746-42.688c39.969,0,73.742,19.541,73.742,42.688c0,5.757-2.222,11.484-6.607,17.023
		c-3.375,4.256-4.02,10.166-1.655,15.061c2.364,4.894,7.4,8.044,12.838,8.044h97.682c7.861,0,14.257-6.401,14.257-14.251V332.549
		c0-6.123-3.913-11.55-9.712-13.5c-5.668-1.903-12.323,0.13-15.917,4.894c-9.032,11.935-21.87,18.772-35.223,18.772
		c-26.179,0-47.481-25.345-47.481-56.482C372.248,255.094,393.551,229.743,419.724,229.743z M354.091,286.227
		c0,41.156,29.447,74.641,65.639,74.641c15.764,0,30.86-6.448,42.693-17.998v110.277h-86.386c4.108-6.993,6.177-14.357,6.177-21.982
		c0-34.117-40.358-60.846-91.895-60.846c-51.539,0-91.904,26.729-91.904,60.846c0,7.619,2.078,14.983,6.18,21.982h-93.269V334.641
		L96.18,348.236c-8.074,7.246-17.387,11.082-26.938,11.082c-28.176,0-51.096-32.787-51.096-73.092
		c0-40.306,22.919-73.093,51.096-73.093c9.552,0,18.864,3.833,26.938,11.083l15.146,13.595V119.318H236.62l-12.685-14.954
		c-6.659-7.844-10.176-16.778-10.176-25.845c0-28.17,32.793-51.089,73.102-51.089c40.3,0,73.087,22.919,73.087,51.089
		c0,9.059-3.518,18.001-10.173,25.845l-12.685,14.954h125.309v110.274c-11.834-11.549-26.93-18.007-42.693-18.007
		C383.538,211.585,354.091,245.069,354.091,286.227z" stroke= "#228BE6" stroke-width="18"/>
</g>
</svg>