<svg xmlns="http://www.w3.org/2000/svg" xmlns:xlink="http://www.w3.org/1999/xlink" viewBox="0,0,256,256" width="32px" height="32px" fill-rule="nonzero"><g fill="#228be6" fill-rule="nonzero" stroke="none" stroke-width="1" stroke-linecap="butt" stroke-linejoin="miter" stroke-miterlimit="10" stroke-dasharray="" stroke-dashoffset="0" font-family="none" font-weight="none" font-size="none" text-anchor="none" style="mix-blend-mode: normal"><g transform="scale(8,8)"><path d="M16,2c-0.50391,0 -0.99609,0.18359 -1.375,0.5625l-2.8125,2.84375c-0.15234,0.08203 -0.28125,0.19922 -0.375,0.34375l-8.875,8.875c-0.75781,0.75391 -0.75781,1.99219 0,2.75l12.0625,12.0625c0.75781,0.75391 1.99219,0.75391 2.75,0l12.0625,-12.0625c0.75781,-0.75391 0.75781,-1.99219 0,-2.75l-12.0625,-12.0625c-0.37891,-0.37891 -0.87109,-0.5625 -1.375,-0.5625zM16,4.03125l11.96875,11.96875l-11.96875,11.96875l-11.96875,-11.96875l8.28125,-8.28125l1.75,1.75c-0.04687,0.16797 -0.0625,0.34766 -0.0625,0.53125c0,0.73828 0.40234,1.37109 1,1.71875v8.5625c-0.59766,0.34766 -1,0.98047 -1,1.71875c0,1.10547 0.89453,2 2,2c1.10547,0 2,-0.89453 2,-2c0,-0.73828 -0.40234,-1.37109 -1,-1.71875v-7.84375l3.0625,3.0625c-0.04297,0.16016 -0.0625,0.32813 -0.0625,0.5c0,1.10547 0.89453,2 2,2c1.10547,0 2,-0.89453 2,-2c0,-1.10547 -0.89453,-2 -2,-2c-0.17187,0 -0.33984,0.01953 -0.5,0.0625l-3.5625,-3.5625c0.04297,-0.16016 0.0625,-0.32812 0.0625,-0.5c0,-1.10547 -0.89453,-2 -2,-2c-0.18359,0 -0.36328,0.01563 -0.53125,0.0625l-1.75,-1.75z"></path></g></g></svg>